<?xml version="1.0" encoding="windows-1252"?>
<!-- Generator: Adobe Illustrator 21.0.2, SVG Export Plug-In . SVG Version: 6.00 Build 0)  -->
<svg version="1.1" id="Layer_1" xmlns="http://www.w3.org/2000/svg" xmlns:xlink="http://www.w3.org/1999/xlink" x="0px" y="0px" viewBox="0 0 169.472 127.682" style="enable-background:new 0 0 169.472 127.682;" xml:space="preserve">
<g>
	<path style="fill:#FFFFFF;" d="M155.062,97.798c2.396,4.606,4.978,8.912,6.398,13.944c0.368,1.303-1.196,1.982-2.113,1.22   c-4.586-3.814-8.49-8.701-11.338-13.959c-2.055-3.794-5.574-12.526-0.401-15.279c0.509-0.271,1.141-0.396,1.753-0.347   c1.093-1.65,2.717-3.133,3.898-4.487c1.801-2.064,3.305-4.381,4.578-6.804c2.721-5.178,4.309-11.189,2.787-16.971   c-1.407-5.347-4.748-10.014-9.51-12.861c-2.51-1.501-5.271-2.481-8.152-2.977c-2.969-0.511-5.906,0.319-8.684-0.924   c-2.555-1.143-1.72-4.43,0.021-5.747c2.646-2.001,7.544-1.131,10.625-0.651c3.554,0.553,7.035,1.752,10.179,3.504   c6.472,3.607,11.489,9.867,13.449,17.026c2.069,7.557,0.448,15.222-2.879,22.158c-1.556,3.245-3.582,6.212-5.885,8.971   c-1.817,2.177-4.409,4.967-7.37,5.633c0.02,0.516,0.055,1.051,0.148,1.614C152.971,93.318,153.92,95.603,155.062,97.798z"/>
	<path style="fill:#FFFFFF;" d="M72.554,108.924c2.444-0.288,5.17,1.436,7.174,2.716c2.249,1.437,4.459,2.873,6.805,4.156   c4.526,2.475,9.345,4.083,14.565,3.459c5.191-0.621,10.248-2.911,14.84-5.291c3.423-1.773,6.9-3.518,9.838-5.973   c-0.038-0.037-0.078-0.072-0.115-0.109c-0.859-0.855-1.384-2.384-0.946-3.57c0.351-0.95,0.742-1.836,1.729-2.253   c1.693-0.715,3.07-0.558,4.493,0.603c4.661,3.805,9.112,6.778,14.921,8.601c5.343,1.676,10.559,2.115,14.985,5.856   c1.052,0.889-0.078,2.914-1.39,2.392c-5.653-2.252-12.028-1.391-17.851-2.966c-4.236-1.146-8.653-3.059-12.375-5.689   c-1.604,3.118-5.367,5.497-8.005,7.373c-5.366,3.817-11.072,7.498-17.615,8.851c-6.607,1.366-12.989,0.335-19.131-2.312   c-2.88-1.241-5.515-2.873-8.079-4.669c-2.453-1.719-6.128-4.307-6.644-7.478C69.428,110.607,70.543,109.161,72.554,108.924z"/>
	<path style="fill:#FFFFFF;" d="M0.28,53.646c0.875-7.657,3.854-14.835,9.643-20.082c4.925-4.464,12.075-7.644,18.757-5.815   c2.027,0.555,2.045,3.532,0.011,4.094c-5.237,1.447-9.858,3.446-13.705,7.43c-3.919,4.058-6.15,9.714-6.883,15.257   c-0.747,5.646-0.336,12.48,1.557,17.877c1.046,2.984,3.333,5.162,5.983,6.788c1.217,0.746,2.694,1.577,4.226,2.188   c1.06-1.077,2.334-1.76,3.845-1.776c1.593-0.017,2.678,1.626,2.175,3.055c2.5,1.612,0.562,7.384-3.225,5.151   c-0.311-0.183-0.642-0.331-0.98-0.464c-0.124,0.223-0.236,0.46-0.327,0.722c-0.995,2.842,0.38,5.795,1.272,8.471   c1.482,4.449,3.861,8.32,7.251,11.581c6.837,6.578,15.418,8.858,24.441,10.644c0.43,0.085,0.516,0.75,0.124,0.945   c-10.489,5.216-23.865-0.936-31.123-8.957c-4.013-4.435-7.673-10.406-7.738-16.542c-0.021-2.034,0.442-5.199,1.495-8.064   c-0.023-0.007-0.048-0.012-0.071-0.019c-1.791-0.529-3.578-1.201-5.238-2.06c-3.217-1.664-5.572-4.34-7.319-7.466   C0.588,69.692-0.613,61.463,0.28,53.646z"/>
	<path style="fill:#FFFFFF;" d="M45.371,13.518c-0.929-0.154-1.334-1.225-1.175-2.036c0.722-3.688,5.883-5.596,8.987-6.759   c3.997-1.498,8.377-2.232,12.646-2.099c4.421,0.137,8.72,1.104,12.717,2.997c0.202,0.096,0.409,0.195,0.618,0.296   c0.193-0.114,0.385-0.227,0.573-0.336c2.449-1.435,5.087-2.604,7.773-3.518c5.513-1.875,11.474-2.491,17.249-1.77   c9.76,1.218,22.623,7.113,25.406,17.442c0.077,0.287-0.247,0.543-0.506,0.387c-3.898-2.338-7.378-5.309-11.373-7.514   c-4.226-2.333-9.098-3.865-13.919-4.246c-4.843-0.383-9.645,0.318-14.21,1.969c-1.531,0.553-3.002,1.252-4.422,2.043   c0.945,1.053,1.647,2.256,1.904,3.646c0.295,1.595-0.752,3.86-2.744,3.623c-2.215-0.264-3.991-1.296-5.753-2.43   c-0.494,0.352-1.004,0.669-1.543,0.92c-2.946,1.373-6.247-1.336-4.95-4.394c-2.338-0.913-4.803-1.581-7.259-1.853   c-3.535-0.392-7.128-0.057-10.544,0.912C51.835,11.651,48.544,14.046,45.371,13.518z"/>
</g>
<g>
	<path style="fill:#070707;" d="M6.389,38.896c0.319-0.383,0.651-0.754,0.991-1.118c-0.331,0.182-0.805-0.144-0.562-0.54   c2.476-4.035,5.849-7.094,9.903-9.514c0.325-0.194,0.6,0.294,0.294,0.503c-3.654,2.495-6.76,5.743-9.387,9.293   c4.073-4.263,9.509-7.189,15.248-8.471c0.383-0.086,0.535,0.465,0.162,0.587c-6.223,2.021-11.326,5.364-15.955,9.954   C6.626,40.039,5.993,39.373,6.389,38.896z"/>
	<path style="fill:#070707;" d="M2.322,75.163c3.51,5.106,7.57,8.487,13.438,10.553c0.56,0.197,0.341,1.019-0.246,0.893   C9.672,85.351,4.016,81.093,1.523,75.631C1.276,75.091,1.98,74.667,2.322,75.163z"/>
	<path style="fill:#070707;" d="M5.224,84.046c2.52,2.04,5.401,3.743,8.37,5.041c0.347,0.152,0.099,0.706-0.255,0.604   c-3.37-0.966-6.18-2.631-8.695-5.065C4.256,84.251,4.822,83.721,5.224,84.046z"/>
	<path style="fill:#070707;" d="M49.54,123.8c7.717-0.437,15.087-2.072,21.904-5.811c0.345-0.189,0.634,0.312,0.307,0.525   c-6.599,4.313-14.283,6.852-22.211,6.397C48.826,124.871,48.824,123.841,49.54,123.8z"/>
	<path style="fill:#070707;" d="M65.906,124.001c2.939-0.176,5.812-1.145,8.218-2.843c0.364-0.257,0.837,0.345,0.481,0.623   c-2.581,2.02-5.416,3.048-8.699,2.987C65.409,124.759,65.416,124.031,65.906,124.001z"/>
	<path style="fill:#070707;" d="M110.324,120.394c6.169-2.336,11.312-5.413,15.817-10.294c0.279-0.303,0.835,0.106,0.582,0.449   c-3.873,5.238-9.681,9.494-16.089,10.967C109.892,121.687,109.631,120.656,110.324,120.394z"/>
	<path style="fill:#070707;" d="M122.719,117.288c2.401-1.444,4.691-3.065,6.772-4.945c0.277-0.25,0.672,0.139,0.412,0.411   c-1.999,2.091-4.24,3.836-6.823,5.151C122.672,118.113,122.322,117.527,122.719,117.288z"/>
	<path style="fill:#070707;" d="M143.163,29.205c6.869,0.717,15.194,3.77,17.271,11.051c0.119,0.417-0.49,0.567-0.638,0.176   c-2.777-7.347-10.232-8.221-16.774-10.188C142.477,30.081,142.547,29.141,143.163,29.205z"/>
	<path style="fill:#070707;" d="M153.796,30.356c-3.092-1.305-6.157-1.507-9.442-1.885c-0.572-0.066-0.844-1.013-0.151-1.117   c3.453-0.519,7.021,0.63,10.088,2.157C154.865,29.798,154.36,30.594,153.796,30.356z"/>
	<path style="fill:#070707;" d="M97.996,0.502c0.364-0.056,0.518,0.44,0.155,0.561c-5.684,1.9-10.086,5.06-14.456,9.073   c-0.554,0.509-1.6-0.181-1.101-0.849C86.229,4.41,92.057,1.416,97.996,0.502z"/>
	<path style="fill:#070707;" d="M85.989,2.09c0.369-0.246,0.837,0.342,0.481,0.623c-2.35,1.85-4.148,4.097-6.019,6.403   c-0.423,0.521-1.243-0.148-0.914-0.705C81.076,5.798,83.484,3.756,85.989,2.09z"/>
</g>
<path style="fill:#070707;" d="M20.328,84.499c0.305,0.119,0.643,0.26,1.01,0.412c-0.164,0.192-0.31,0.401-0.435,0.621  c-3.431,5.971-0.779,14.024,3.019,19.138c4.125,5.559,10.221,9.848,16.446,12.755c10.034,4.679,24.386,5.158,32.056-3.601  c1.129,1.377,3.098,2.483,4.278,3.211c2.421,1.496,5.288,2.478,8.031,3.177c5.999,1.541,12.201,1.597,18.263,0.44  c8.573-1.637,18.596-6.005,23.805-13.55c2.54,1.862,5.254,3.499,8.121,4.78c4.075,1.817,8.443,2.98,12.856,3.55  c3.098,0.406,8.669,0.7,12.41-0.339c0.209,0.158,0.412,0.322,0.626,0.48c1.727,1.264,3.77-1.501,2.269-2.918  c-4.075-3.838-8.228-7.596-11.129-12.45c-1.473-2.466-2.59-5.136-3.318-7.912c-0.435-1.625-0.536-3.268-0.655-4.91  c4.949-1.479,9.256-4.932,12.202-9.222c4.357-6.355,5.164-14.278,3.375-21.655c-1.682-6.93-5.824-13.827-11.648-18.043  c-3.657-2.653-8.471-4.402-13.116-4.261c-0.254-1.986-1.027-4.063-1.597-5.598c-1.179-3.211-2.923-6.197-4.966-8.928  c-4.159-5.553-9.701-10-16.186-12.523c-6.851-2.664-14.493-3.031-21.643-1.445c-3.347,0.739-6.631,1.919-9.673,3.505  c-0.141,0.062-0.276,0.135-0.412,0.209c-0.451,0.243-0.954,0.502-1.473,0.79c-1.462,0.79-3.093,1.755-4.3,2.935  C71.623,8.209,62.548,6.211,54.15,7.701c-6.4,1.135-12.269,4.351-17.224,8.477c-4.481,3.736-9.487,9.368-10.808,15.266  c-5.881,0.717-11.671,4.148-15.509,8.291C5.688,45.05,2.641,52.167,2.697,59.458c0.056,7.241,3.268,14.075,8.437,19.076  C13.793,81.107,16.897,83.117,20.328,84.499z M14.95,75.865c-4.278-4.182-7.292-10.006-7.546-16.039  c-0.26-6.197,2.088-12.444,6.18-17.089c2.082-2.37,4.582-4.363,7.387-5.807c3.471-1.795,7.105-2.162,10.903-2.703  c1.321-0.192,1.208-2.28-0.006-2.545c-0.689-0.158-1.383-0.26-2.082-0.316c1.072-1.913,2.015-3.9,3.251-5.723  c1.625-2.382,3.544-4.549,5.689-6.473c4.278-3.843,9.617-6.406,15.289-7.354c11.31-1.879,23.054,3.194,29.821,12.343  c1.292,1.738,4.052,0.277,2.98-1.721c-1.298-2.421-2.952-4.571-4.865-6.445c0.282-0.226,0.57-0.451,0.869-0.666  c1.275-0.897,2.624-1.693,4.013-2.404c2.748-1.411,5.683-2.41,8.714-3.014c6.253-1.242,12.975-0.722,18.878,1.727  c5.7,2.359,10.774,6.304,14.448,11.259c1.783,2.404,3.2,5.051,4.408,7.788c0.542,1.225,0.88,2.76,1.349,4.205  c-1.174,0.367-2.308,0.886-3.381,1.586c-2.336,1.524-0.333,4.904,2.15,3.719c13.15-6.259,24.268,5.525,26,18.116  c1.665,12.094-5.113,23.218-17.309,25.628c-2.461,0.491-1.778,4.216,0.581,4.227c0.361,0,0.717-0.017,1.072-0.04  c-0.186,4.774,2.015,10.125,4.233,13.821c2.512,4.182,5.824,7.85,9.538,11.016c-3.059-0.468-6.535-0.429-9.284-1.044  c-3.973-0.892-7.721-2.359-11.338-4.216c-3.601-1.851-6.987-4.029-9.989-6.75c-1.467-1.332-2.816-2.765-4.12-4.261  c-1.208-1.394-2.224-3.076-3.928-3.883c-1.185-0.553-2.912,0.085-2.805,1.62c0.282,4.046,4.786,7.788,7.681,10.254  c0.231,0.198,0.469,0.384,0.7,0.581c-5.491,6.727-14.177,10.328-22.862,11.355c-5.322,0.632-10.87,0.435-16.045-0.976  c-2.669-0.728-5.203-1.828-7.687-3.042c-1.016-0.502-2.1-1.377-3.228-1.851c0.13-0.226,0.26-0.446,0.384-0.677  c0.423-0.824-0.722-1.846-1.349-1.05c-7.608,9.718-20.249,9.882-30.679,4.927c-5.119-2.432-10.057-5.745-13.821-10.023  c-1.783-2.02-3.324-4.357-4.159-6.93c-1.038-3.2-0.672-5.672,0.519-8.765c0.271-0.705,0.44-1.321,0.536-1.857  c1.4,0.198,2.703,0.068,3.601-0.773c0.435-0.406,0.581-1.236,0.231-1.738c-1.49-2.139-5.39-1.902-7.732-2.991  C19.481,79.634,17.043,77.907,14.95,75.865z"/>
<path style="fill:#FFFFFF;" d="M7.404,59.825c0.254,6.033,3.268,11.857,7.546,16.039c2.094,2.043,4.532,3.77,7.19,5.006  c2.342,1.089,6.242,0.852,7.732,2.991c0.35,0.502,0.203,1.332-0.231,1.738c-0.897,0.841-2.201,0.971-3.601,0.773  c-0.096,0.536-0.265,1.151-0.536,1.857c-1.191,3.093-1.558,5.565-0.519,8.765c0.835,2.574,2.376,4.91,4.159,6.93  c3.764,4.278,8.702,7.591,13.821,10.023c10.429,4.955,23.071,4.791,30.679-4.927c0.626-0.796,1.772,0.226,1.349,1.05  c-0.124,0.231-0.254,0.451-0.384,0.677c1.129,0.474,2.212,1.349,3.228,1.851c2.483,1.214,5.017,2.314,7.687,3.042  c5.175,1.411,10.723,1.608,16.045,0.976c8.686-1.027,17.371-4.628,22.862-11.355c-0.231-0.197-0.468-0.384-0.7-0.581  c-2.895-2.466-7.399-6.208-7.681-10.254c-0.107-1.535,1.62-2.173,2.805-1.62c1.704,0.807,2.72,2.489,3.928,3.883  c1.304,1.496,2.652,2.929,4.12,4.261c3.002,2.72,6.389,4.899,9.989,6.75c3.618,1.857,7.365,3.324,11.338,4.216  c2.748,0.615,6.225,0.576,9.284,1.044c-3.714-3.166-7.026-6.835-9.538-11.016c-2.218-3.697-4.419-9.047-4.233-13.821  c-0.355,0.023-0.711,0.04-1.072,0.04c-2.359-0.011-3.042-3.736-0.581-4.227c12.196-2.41,18.974-13.533,17.309-25.628  c-1.733-12.591-12.85-24.375-26-18.116c-2.483,1.185-4.487-2.195-2.15-3.719c1.072-0.7,2.207-1.219,3.381-1.586  c-0.469-1.445-0.807-2.98-1.349-4.205c-1.208-2.737-2.624-5.384-4.408-7.788c-3.674-4.955-8.748-8.9-14.448-11.259  c-5.903-2.449-12.625-2.969-18.878-1.727c-3.031,0.604-5.965,1.603-8.714,3.014c-1.388,0.711-2.737,1.507-4.013,2.404  c-0.299,0.215-0.587,0.44-0.869,0.666c1.913,1.874,3.567,4.024,4.865,6.445c1.072,1.998-1.687,3.46-2.98,1.721  c-6.767-9.148-18.511-14.222-29.821-12.343c-5.672,0.948-11.011,3.51-15.289,7.354c-2.144,1.924-4.063,4.092-5.689,6.473  c-1.236,1.823-2.178,3.809-3.251,5.723c0.7,0.056,1.394,0.158,2.082,0.316c1.213,0.265,1.326,2.353,0.006,2.545  c-3.798,0.542-7.433,0.909-10.903,2.703c-2.805,1.445-5.305,3.437-7.387,5.807C9.492,47.381,7.144,53.629,7.404,59.825z"/>
<path style="fill:#070707;" d="M35.268,28.003c2.034-5.979,7.659-10.145,13.722-11.355c0.248-0.049,0.356,0.323,0.105,0.383  c-6.201,1.485-10.503,5.616-13.343,11.176C35.617,28.471,35.171,28.288,35.268,28.003z"/>
<path style="fill:#070707;" d="M144.902,80.872c6.85-2.748,11.455-9.248,11.287-16.699c-0.004-0.171,0.258-0.17,0.265,0  c0.302,7.478-4.29,14.644-11.449,17.069C144.766,81.322,144.679,80.962,144.902,80.872z"/>
<path style="fill:#070707;" d="M29.454,94.015c1.238,6.313,4.213,11.521,10.053,14.634c0.228,0.121,0.028,0.451-0.2,0.343  c-5.653-2.68-10.274-8.453-10.476-14.892C28.82,93.748,29.385,93.659,29.454,94.015z"/>
<path style="fill:#070707;" d="M123.08,21.088c3.993,2.665,6.565,6.715,7.401,11.434c0.044,0.248-0.33,0.358-0.383,0.105  c-0.945-4.553-3.488-8.438-7.205-11.219C122.707,21.268,122.877,20.953,123.08,21.088z"/>
</svg>